<?xml version="1.0" encoding="utf-8" ?>
<svg xmlns="http://www.w3.org/2000/svg" xmlns:xlink="http://www.w3.org/1999/xlink" width="563" height="563">
	<path transform="scale(0.880376 0.880376)" d="M234.614 206.682C225.402 168.849 223.258 130.399 250.865 98.8139C280.504 64.9047 330.025 60.3278 361.551 94.1598C366.271 99.2248 364.574 97.6646 371.132 98.9592C413.391 107.301 416.008 160.403 409.418 194.714C408.679 198.565 407.984 202.578 406.618 206.261C404.801 208.93 402.366 211.478 400.976 214.375C399.165 218.151 399.613 227.661 395.938 229.881C383.422 223.756 388.552 183.927 386.158 172.344C382.69 155.565 366.438 142.88 349.091 145.928C331.693 148.986 324.982 157.001 303.913 149.851C300.335 148.637 296.778 147.105 293.077 146.318C274.404 142.346 257.978 153.721 253.206 171.477C251.784 176.767 252.61 183.503 252.679 188.993C252.758 195.198 253.323 225.213 249.375 229.36C242.433 229.89 238.452 213.015 234.614 206.682Z"/>
	<defs>
		<linearGradient id="gradient_0" gradientUnits="userSpaceOnUse" x1="230.96532" y1="223.05556" x2="406.26263" y2="243.97165">
			<stop offset="0" stop-color="#FF7D16"/>
			<stop offset="1" stop-color="#E65058"/>
		</linearGradient>
	</defs>
	<path fill="url(#gradient_0)" transform="scale(0.880376 0.880376)" d="M234.614 206.682C238.452 213.015 242.433 229.89 249.375 229.36C253.323 225.213 252.758 195.198 252.679 188.993C252.61 183.503 251.784 176.767 253.206 171.477C257.978 153.721 274.404 142.346 293.077 146.318C296.778 147.105 300.335 148.637 303.913 149.851C324.982 157.001 331.693 148.986 349.091 145.928C366.438 142.88 382.69 155.565 386.158 172.344C388.552 183.927 383.422 223.756 395.938 229.881C399.613 227.661 399.165 218.151 400.976 214.375C402.366 211.478 404.801 208.93 406.618 206.261C414.975 214.341 406.718 236.219 402.543 244.616C398.754 252.238 399.276 250.934 392.517 254.618C390.538 258.546 389.746 263.182 388.347 267.364C383.895 280.663 376.745 296.226 364.472 303.843L364.333 304.553L363.757 304.823C360.361 306.52 357.404 311.201 354.357 313.639C332.854 330.852 302.84 329.455 282.181 311.652C280.3 310.031 278.593 307.673 276.389 306.545C276.171 305.202 276.147 305.288 275.116 304.343C263.897 294.061 256.805 280.851 251.954 266.509L249.499 258.967C249.157 257.81 248.998 256.437 248.411 255.387C237.151 255.287 228.876 220.636 232.106 211.202C232.667 209.562 233.669 208.12 234.614 206.682Z"/>
	<path transform="scale(0.880376 0.880376)" d="M276.238 306.545C278.593 307.673 280.3 310.031 282.181 311.652C302.84 329.455 332.854 330.852 354.357 313.639C357.404 311.201 360.361 306.52 363.757 304.823L364.333 304.553C364.206 307.418 364.547 310.538 364.641 313.426C364.977 323.787 365.319 347.709 377.421 350.941C381.456 352.304 385.4 354.808 389.134 356.86L431.973 379.285C440.9 383.809 449.749 388.443 458.976 392.339C463.282 394.157 468.112 395.056 471.997 397.722C486.625 407.757 488.654 431.016 490.538 446.909L493.408 472.801C495.126 487.899 497.02 503.754 494.819 518.849L145.335 518.77C144.951 508.634 145.042 498.106 145.765 487.997L149.185 455.156C150.974 438.267 152.117 409.157 167.783 398.281C172.118 395.272 177.902 393.615 182.731 391.454L243.814 360.81C250.475 357.249 256.758 352.93 263.791 350.125C277.29 344.366 276.224 319.129 276.238 306.545Z"/>
	<path fill="#CE483F" transform="scale(0.880376 0.880376)" d="M276.238 306.545C278.593 307.673 280.3 310.031 282.181 311.652C302.84 329.455 332.854 330.852 354.357 313.639C357.404 311.201 360.361 306.52 363.757 304.823L364.333 304.553C364.206 307.418 364.547 310.538 364.641 313.426C364.977 323.787 365.319 347.709 377.421 350.941L320.393 405.309C317.575 404.02 314.618 400.645 312.378 398.437L263.791 350.125C277.29 344.366 276.224 319.129 276.238 306.545Z"/>
</svg>
