<?xml version="1.0" encoding="utf-8" ?>
<svg xmlns="http://www.w3.org/2000/svg" xmlns:xlink="http://www.w3.org/1999/xlink" width="436" height="436">
	<path fill="#2252FE" transform="scale(0.681377 0.681377)" d="M506.973 264.611C517.366 264.675 532.929 263.824 533.62 277.642L533.564 277.754L533.398 277.086C532.418 275.869 509.782 276.531 507.24 276.686C506.977 272.83 507.377 268.526 506.973 264.611Z"/>
	<defs>
		<linearGradient id="gradient_0" gradientUnits="userSpaceOnUse" x1="112.72598" y1="277.93982" x2="114.83453" y2="263.23032">
			<stop offset="0" stop-color="#2162FF"/>
			<stop offset="1" stop-color="#2740FF"/>
		</linearGradient>
	</defs>
	<path fill="url(#gradient_0)" transform="scale(0.681377 0.681377)" d="M100.284 277.894C100.152 270.227 104.973 265.98 112.523 264.68L113.125 264.581C117.437 263.847 121.378 263.932 125.727 264.149L125.548 276.927C121.577 276.563 103.812 275.325 100.284 277.894Z"/>
	<path fill="#0083FE" transform="scale(0.681377 0.681377)" d="M125.454 468.785L151.888 468.809L152.173 511.305C152.179 519.119 153.572 526.15 163.097 526.379L459.761 526.359C472.052 526.35 480.614 527.41 480.65 512.697L480.628 473.28L480.786 468.852L506.94 468.73L506.883 516.35C506.774 536.634 492.656 552.272 471.844 552.975L169.983 553.038C165.718 553.042 161.193 553.344 156.963 552.799C141.412 550.794 129.077 538.11 125.955 523.011C124.922 518.01 125.554 511.965 125.551 506.817L125.454 468.785Z"/>
	<path fill="#0083FE" transform="scale(0.681377 0.681377)" d="M125.627 264.165L125.539 123.044C125.533 117.613 124.977 111.785 125.814 106.406C128.216 90.9828 142.965 76.639 158.687 75.6533C163.814 75.3319 169.036 75.5118 174.172 75.5088L375.383 75.4893C384.507 75.4861 387.815 74.6741 394.844 81.2005C400.192 86.1666 405.038 91.7271 410.067 97.0154L496.453 184.877C505.129 194.541 506.687 198.551 506.831 210.746L506.896 264.611C507.377 268.526 506.977 272.83 506.896 276.785L507.164 277.108C505.417 277.763 502.667 277.428 500.774 277.428L487.52 277.384C485.59 277.371 482.49 277.738 480.785 277.014L480.408 208.506C474.011 207.533 466.796 208.173 460.298 208.175L421.046 208.185C415.688 208.186 409.429 208.797 404.186 207.855C382.564 203.97 373.847 187.328 374.002 167.352L374.059 102.23L168.75 102.223C166.114 102.225 162.682 101.985 160.156 102.79C148.089 106.633 152.172 127.036 152.171 137.269L152.139 276.634C148.977 278.236 129.707 277.585 126.207 277.256L125.627 264.165Z"/>
	<path fill="#21B0FE" transform="scale(0.681377 0.681377)" d="M480.785 276.581C482.49 277.738 485.59 277.371 487.52 277.384L500.774 277.428C502.667 277.428 505.417 277.763 507.164 277.108L507.24 277.076C509.782 276.531 532.418 275.869 533.398 277.086L533.564 277.473L533.432 452.749C533.415 465.065 529.008 468.67 516.952 468.702L506.94 468.703L480.786 468.852L480.74 472.56L480.708 468.83L151.888 468.801L125.274 468.692L115.399 468.729C108.523 468.727 100.955 466.063 100.663 457.793L100.658 286.7C100.642 284.238 99.91 280.267 100.516 277.974C103.812 275.325 121.577 276.563 126.207 276.564C129.707 277.585 148.977 278.236 151.921 276.634L480.785 276.581ZM230.045 318.871L198.281 421.968C197.976 423.243 197.906 424.651 197.325 425.831L220.427 425.799C221.482 423.8 222.15 421.548 222.896 419.417L227.09 406.344C227.637 404.561 227.911 402.109 228.927 400.582L261.094 400.493L261.934 400.533C262.87 402.342 263.375 404.437 264.065 406.357L269.305 420.996C269.806 422.298 270.424 424.852 271.513 425.683L286.392 425.719C288.943 425.712 291.676 425.901 294.204 425.59L294.074 425.284C292.754 422.017 291.971 416.663 290.8 412.948L262.619 325.781C259.296 316.221 259.092 318.779 248.036 318.784L230.045 318.871ZM320.777 318.809L311.157 318.848C309.365 318.857 307.344 318.686 305.588 319.008L305.534 425.885L329.298 425.734L329.531 388.396L330.425 387.985C343.167 389.634 359.309 387.468 369.531 379.607C392.85 361.674 383.025 322.583 350.156 318.937L320.777 318.809ZM402.495 318.863L402.462 415.555C402.461 418.908 402.133 422.628 402.531 425.925L426.616 425.897L426.532 318.803L402.495 318.863Z"/>
	<path fill="#21B0FE" transform="scale(0.681377 0.681377)" d="M336.121 337.942C339.272 337.633 343.547 337.375 346.612 338.204L347.188 338.365C355.17 340.54 359.591 347.782 358.267 355.967L357.79 358.281C356.551 362.716 354.382 365.556 350.356 367.799C344.546 369.874 335.219 369.085 329.219 367.903L329.325 338.599L336.121 337.942Z"/>
	<path fill="#21B0FE" transform="scale(0.681377 0.681377)" d="M245.38 341.719L245.85 341.777C247.917 345.963 248.543 351.541 249.72 356.084L256.505 380.62L245.209 380.618L233.865 380.456C234.664 378.112 235.163 375.718 235.891 373.352L241.383 355.156C242.597 350.791 243.476 345.803 245.38 341.719Z"/>
</svg>
