<?xml version="1.0" encoding="utf-8" ?>
<svg xmlns="http://www.w3.org/2000/svg" xmlns:xlink="http://www.w3.org/1999/xlink" width="512" height="512">
	<path fill="#E1CE7A" d="M331.922 187.849L256.531 229.783C252.266 228.058 248.119 225.376 244.043 223.19L105.794 146.946L89.9902 137.793C83.4624 133.928 76.5043 130.489 70.4046 125.971L243.286 25.625C243.946 25.8316 243.873 26.7687 243.88 27.1022L243.902 115.82C243.904 119.413 243.335 121.881 245.557 124.878C252.067 133.658 266.135 129.974 268.517 121.125C269.048 119.152 268.753 116.578 268.756 114.517L268.796 37.3731C268.8 33.5667 268.713 29.7505 269.143 25.9621C275.684 28.5752 281.907 33.0016 287.987 36.5723L408.314 105.501L442.131 125.99C437.763 129.075 432.765 131.552 428.088 134.147L331.922 187.849Z"/>
	<path fill="#E1CE7A" d="M237.886 480.089L197.956 457.598C198.59 455.589 199.641 453.609 200.335 451.576C220.585 392.211 195.495 325.345 153.194 281.937C123.997 251.976 84.348 232.359 43.1705 225.518L43.5687 141.021C47.8352 142.309 51.968 145.064 55.7913 147.108L238.587 247.835C240.355 248.827 242.467 249.662 243.989 250.989L243.995 483.503C243.364 482.854 242.535 482.684 241.75 482.283L237.886 480.089Z"/>
	<path fill="#E1CE7A" d="M275.626 478.748L268.997 482.093C268.68 481.063 268.799 479.771 268.777 478.691L268.47 253.686C268.474 252.752 268.335 251.635 268.646 250.753C271.293 248.705 274.77 247.094 277.699 245.417L387.348 184.548L454.988 147.739C459.059 145.569 463.144 143.16 467.501 141.625L468.325 141.589C469.019 144.52 468.683 148.123 468.685 151.137L468.749 229.224C468.193 229.622 467.18 229.532 466.495 229.587L452.808 231.349C362.69 247.368 294.215 337.447 306.294 428.833C307.619 438.857 309.579 448.457 313.686 457.758L275.626 478.748Z"/>
	<path fill="#E1CE7A" d="M178.199 440.825L177.36 445.012L88.895 395.332C59.822 379.483 43.3465 367.258 43.295 332.189L43.3203 250.489C52.1502 251.463 60.0534 253.509 68.25 256.233C124.463 274.916 170.669 325.689 179.993 384.694L181.484 395.584C183.575 408.377 180.936 428.548 178.199 440.825Z"/>
	<path fill="#E1CE7A" d="M336.16 444.021C335.636 444.27 335.9 444.238 335.375 444.162L331.221 423.375C322.745 345.449 384.2 262.197 463.67 254.605C465.228 254.397 466.949 254.523 468.527 254.515C468.888 260.237 468.709 266.047 468.715 271.783L468.73 325.814C468.706 365.638 458.866 375.405 427.113 393.429L336.16 444.021Z"/>
</svg>
