<?xml version="1.0" encoding="utf-8" ?>
<svg xmlns="http://www.w3.org/2000/svg" xmlns:xlink="http://www.w3.org/1999/xlink" width="436" height="436">
	<path fill="#FFE254" transform="scale(0.681377 0.681377)" d="M319.224 71.3453C331.172 69.6935 335.04 82.3231 338.577 90.8015L394.815 226.279C396.206 229.612 400.295 228.744 403.633 229.078L542.967 240.173C548.393 240.571 554.245 240.369 559.219 242.854C566.34 246.411 570.342 255.666 566.015 262.875C563.641 266.829 559.825 269.963 556.411 272.992L447.484 366.948C442.942 370.866 439.697 371.279 441.123 376.846L473.906 510.565C475.56 517.574 480.011 528.717 475.939 535.566C466.133 552.064 447.446 536.614 436.468 530.258L321.06 464.523L320.61 464.131C319.424 464.301 318.177 465.13 317.095 465.661L191.416 537.633C188.301 539.408 185.061 541.528 181.582 542.501C174.089 544.598 165.692 540.12 163.745 532.422L163.651 532.031C161.884 525.153 165.751 516.137 167.324 509.48L200.648 373.167C195.125 369.464 190.054 364.342 185.061 359.935L78.4375 267.5C74.3576 263.577 71.5523 257.617 73.5568 251.927L73.6915 251.562C77.6841 240.073 90.5461 240.891 100.43 240.078L245.059 228.177L304.266 86.1267C307.487 78.5135 310.008 72.7453 319.224 71.3453Z"/>
</svg>
